# xmcd CD database file
#
# Track frame offsets:
#	150
#	15450
#	27515
#	41432
#	52455
#	71097
#	85757
#	99530
#	112440
#	126865
#	145662
#	161020
#
# Disc length: 2326 seconds
#
# Revision: 2
# Processed by: cddbd v1.5.2PL0 Copyright (c) Steve Scherf et al.
# Submitted via: CDex 1.79
#
DISCID=ac09140c
DTITLE=Heather Myles - Untamed
DYEAR=1995
DGENRE=Country
TTITLE0=And It Hurts
TTITLE1=Just Leave Me Alone
TTITLE2=When You Walked Out On Me
TTITLE3=Cadillac Cowboy
TTITLE4=Until I Couldn't Have You
TTITLE5=Indigo Moon
TTITLE6=It Ain't Over
TTITLE7=Begging To You
TTITLE8=How Could She
TTITLE9=Coming Back To Me
TTITLE10=Gone Too Long
TTITLE11=Untamed
EXTD=YEAR: 1995
EXTT0=
EXTT1=
EXTT2=
EXTT3=
EXTT4=
EXTT5=
EXTT6=
EXTT7=
EXTT8=
EXTT9=
EXTT10=
EXTT11=
PLAYORDER=
